<svg width="855" height="868" viewBox="0 0 855 868" fill="none" xmlns="http://www.w3.org/2000/svg">
<path d="M462.151 809.586C460.888 808.957 459.508 808.6 458.099 808.539C456.926 808.509 455.762 808.733 454.685 809.197C453.608 809.661 452.645 810.353 451.861 811.225C451.003 812.077 450.324 813.092 449.863 814.21C449.402 815.328 449.168 816.526 449.175 817.736V847.831H441.025V817.736C441 814.429 441.899 811.18 443.62 808.357C445.334 805.527 447.812 803.239 450.768 801.755C452.824 800.767 455.061 800.212 457.341 800.126C459.62 800.04 461.893 800.424 464.017 801.254C466.169 802.197 468.176 803.439 469.982 804.942L462.151 809.586Z" fill="#0F1623"/>
<path d="M476.219 827.752C476.313 829.396 476.883 830.978 477.858 832.305C478.913 833.887 480.203 835.299 481.682 836.494C484.29 838.508 487.493 839.597 490.788 839.59C493.578 839.565 496.311 838.802 498.71 837.379C501.109 835.955 503.088 833.922 504.447 831.485L511.641 835.72C509.386 839.446 506.261 842.571 502.535 844.826C498.954 846.95 494.86 848.053 490.697 848.013C487.57 848.021 484.474 847.402 481.591 846.191C478.743 844.968 476.149 843.223 473.942 841.047C471.755 838.831 470.009 836.22 468.797 833.352C467.57 830.473 466.935 827.376 466.931 824.246C466.944 817.897 469.464 811.81 473.942 807.309C476.162 805.118 478.813 803.413 481.728 802.301C487.662 799.934 494.278 799.934 500.213 802.301C503.033 803.518 505.574 805.3 507.68 807.537C509.906 809.693 511.674 812.276 512.879 815.131C514.084 817.987 514.7 821.056 514.691 824.155C514.687 825.359 514.596 826.561 514.418 827.752H476.219ZM483.686 810.087C481.535 811.139 479.675 812.702 478.268 814.64C476.964 816.34 476.245 818.416 476.219 820.558H505.722C505.69 818.424 504.989 816.354 503.718 814.64C502.283 812.711 500.41 811.151 498.255 810.087C495.995 808.95 493.5 808.357 490.97 808.357C488.44 808.357 485.946 808.95 483.686 810.087Z" fill="#0F1623"/>
<path d="M540.552 847.831H532.539L513.872 800.526H522.978L536.636 835.037L550.295 800.526H559.401L540.552 847.831Z" fill="#0F1623"/>
<path d="M566.139 792.421C565.371 791.582 564.946 790.486 564.946 789.348C564.946 788.211 565.371 787.114 566.139 786.275C566.981 785.494 568.087 785.06 569.235 785.06C570.383 785.06 571.489 785.494 572.331 786.275C573.099 787.114 573.525 788.211 573.525 789.348C573.525 790.486 573.099 791.582 572.331 792.421C571.489 793.202 570.383 793.636 569.235 793.636C568.087 793.636 566.981 793.202 566.139 792.421ZM565.365 847.831V800.526H573.287V847.831H565.365Z" fill="#0F1623"/>
<path d="M586.445 827.752C586.537 829.404 587.124 830.991 588.13 832.305C589.173 833.897 590.464 835.311 591.954 836.494C594.559 838.514 597.764 839.604 601.06 839.59C603.849 839.56 606.58 838.795 608.978 837.372C611.377 835.95 613.357 833.919 614.719 831.485L621.913 835.72C619.646 839.437 616.524 842.559 612.807 844.825C609.24 846.942 605.162 848.044 601.015 848.013C597.888 848.021 594.792 847.402 591.909 846.191C586.123 843.742 581.519 839.137 579.07 833.352C577.857 830.47 577.237 827.373 577.248 824.246C577.246 821.12 577.865 818.025 579.07 815.14C580.253 812.246 582.02 809.627 584.26 807.446C586.445 805.2 589.083 803.446 592 802.301C597.851 799.993 604.36 799.993 610.212 802.301C613.079 803.463 615.67 805.216 617.815 807.446C620.041 809.602 621.81 812.185 623.015 815.04C624.219 817.896 624.836 820.965 624.827 824.064C624.823 825.268 624.731 826.47 624.553 827.661L586.445 827.752ZM593.912 810.087C591.778 811.164 589.923 812.723 588.494 814.64C587.199 816.327 586.481 818.386 586.445 820.513H615.994C615.968 818.37 615.249 816.294 613.945 814.594C612.516 812.677 610.661 811.119 608.527 810.041C606.259 808.904 603.757 808.311 601.22 808.311C598.682 808.311 596.18 808.904 593.912 810.041V810.087Z" fill="#0F1623"/>
<path d="M678.825 847.831H670.584L661.979 826.432L653.374 847.831H645.133L626.056 800.526H635.162L648.821 835.037L656.971 815.095L651.098 800.526H660.203L673.862 835.037L687.794 800.526H696.9L678.825 847.831Z" fill="#0F1623"/>
<path d="M717.434 846.92C714.858 845.625 712.627 843.737 710.923 841.411V868H702.5V801.664H710.923V808.266C712.823 805.832 715.192 803.804 717.889 802.301C720.472 800.996 723.328 800.325 726.221 800.344C729.347 800.341 732.442 800.96 735.327 802.165C738.192 803.372 740.78 805.154 742.93 807.401C745.15 809.652 746.912 812.311 748.121 815.232C749.318 818.118 749.937 821.212 749.942 824.337C749.953 827.464 749.334 830.561 748.121 833.443C746.9 836.344 745.139 838.986 742.93 841.229C740.755 843.434 738.173 845.196 735.327 846.419C732.456 847.677 729.356 848.328 726.221 848.331C723.224 848.521 720.221 848.039 717.434 846.92ZM720.439 810.132C718.597 810.905 716.926 812.035 715.522 813.456C714.13 814.944 713.02 816.672 712.244 818.555C711.433 820.447 711.015 822.484 711.015 824.542C711.015 826.601 711.433 828.637 712.244 830.529C713.044 832.373 714.152 834.067 715.522 835.538C716.921 836.987 718.592 838.147 720.439 838.952C722.322 839.765 724.352 840.183 726.403 840.182C728.455 840.193 730.487 839.774 732.368 838.952C734.227 838.169 735.902 837.006 737.285 835.538C739.428 833.335 740.88 830.554 741.463 827.537C742.045 824.519 741.733 821.397 740.563 818.555C739.82 816.654 738.706 814.921 737.285 813.456C735.897 812.015 734.222 810.883 732.368 810.132C730.427 809.301 728.331 808.897 726.221 808.949C724.234 808.956 722.269 809.358 720.439 810.132Z" fill="#0F1623"/>
<path d="M793.331 847.831V840.637C791.351 842.911 788.975 844.808 786.32 846.237C783.718 847.588 780.829 848.291 777.897 848.286C774.775 848.291 771.682 847.688 768.791 846.51C765.95 845.319 763.368 843.587 761.188 841.411C758.969 839.239 757.218 836.636 756.043 833.762C754.843 830.876 754.225 827.781 754.225 824.656C754.225 821.531 754.843 818.436 756.043 815.55C757.811 811.184 760.857 807.453 764.78 804.845C768.704 802.238 773.323 800.875 778.034 800.935C780.979 800.911 783.893 801.544 786.563 802.789C789.233 804.033 791.592 805.857 793.468 808.129V801.664H801.982V847.831H793.331ZM771.75 810.314C769.885 811.047 768.194 812.164 766.788 813.592C765.364 815.003 764.248 816.692 763.51 818.555C762.33 821.38 762.011 824.491 762.595 827.497C763.178 830.502 764.637 833.268 766.788 835.447C768.205 836.862 769.893 837.977 771.75 838.725C773.652 839.527 775.697 839.929 777.76 839.908C779.855 839.949 781.934 839.545 783.861 838.725C785.702 837.991 787.375 836.891 788.778 835.492C790.919 833.307 792.371 830.541 792.954 827.539C793.537 824.536 793.225 821.428 792.057 818.601C791.318 816.738 790.202 815.048 788.778 813.638C787.389 812.211 785.713 811.093 783.861 810.36C781.97 809.579 779.943 809.177 777.897 809.176C775.793 809.145 773.704 809.532 771.75 810.314Z" fill="#0F1623"/>
<path d="M846.237 847.831V840.546C844.254 842.897 841.824 844.831 839.089 846.237C836.436 847.583 833.504 848.284 830.529 848.286C827.312 848.32 824.121 847.7 821.15 846.465C818.287 845.257 815.711 843.457 813.593 841.183C811.375 838.949 809.612 836.304 808.402 833.398C805.975 827.428 805.975 820.746 808.402 814.776C809.6 811.823 811.364 809.132 813.593 806.854C815.713 804.594 818.289 802.809 821.15 801.618C824.118 800.367 827.309 799.732 830.529 799.752C833.68 799.69 836.801 800.377 839.635 801.755C842.282 803.037 844.602 804.905 846.419 807.218V785H854.751V847.831H846.237ZM824.565 809.631C822.708 810.398 821.033 811.546 819.648 813.001C818.239 814.466 817.112 816.18 816.324 818.054C815.117 820.908 814.788 824.057 815.38 827.098C815.972 830.14 817.458 832.936 819.648 835.128C821.031 836.596 822.706 837.759 824.565 838.543C826.446 839.364 828.477 839.783 830.529 839.772C832.595 839.768 834.638 839.35 836.539 838.543C838.406 837.749 840.094 836.588 841.502 835.128C843.692 832.936 845.178 830.14 845.77 827.098C846.362 824.057 846.033 820.908 844.826 818.054C844.021 816.189 842.897 814.478 841.502 813.001C840.092 811.554 838.404 810.408 836.539 809.631C834.629 808.859 832.59 808.458 830.529 808.448C828.483 808.444 826.455 808.846 824.565 809.631Z" fill="#0F1623"/>
<path d="M438.793 7.89768L470.607 62.6999C474.443 69.3839 476.46 76.9557 476.46 84.6618C476.46 92.3679 474.443 99.9397 470.607 106.624L314.206 376.53C305.936 391.142 301.632 407.663 301.72 424.453C301.809 441.242 306.288 457.717 314.711 472.241C323.135 486.765 335.211 498.833 349.741 507.247C364.27 515.661 380.748 520.128 397.538 520.206H404.311C408.553 520.206 412.863 519.59 417.242 518.359C419.381 517.893 421.611 518.096 423.63 518.941C425.649 519.785 427.36 521.23 428.531 523.079C433.61 531.191 436.367 540.54 436.504 550.11C436.64 559.68 434.149 569.104 429.303 577.357C424.457 585.61 417.441 592.376 409.018 596.92C400.595 601.464 391.087 603.611 381.528 603.128H96.023C93.5069 603.157 91.0272 602.525 88.8321 601.295C86.6369 600.065 84.8034 598.279 83.5149 596.118C82.2264 593.957 81.5281 591.495 81.49 588.979C81.4518 586.463 82.0751 583.981 83.2975 581.781L413.342 7.07669C414.678 4.85005 416.584 3.02067 418.864 1.77784C421.143 0.535008 423.714 -0.0761363 426.309 0.0075781C428.904 0.0912925 431.43 0.866831 433.625 2.25401C435.82 3.64118 437.604 5.58959 438.793 7.89768Z" fill="#0F1623"/>
<path d="M1.1952 723.61L33.0092 668.808C36.8674 661.997 42.4837 656.347 49.2714 652.448C56.0591 648.548 63.7692 646.543 71.5965 646.641H383.579C400.363 646.538 416.829 642.059 431.351 633.645C445.874 625.23 457.949 613.173 466.386 598.664C474.822 584.154 479.327 567.695 479.455 550.911C479.583 534.128 475.33 517.601 467.116 502.965L463.422 497.423C460.926 493.816 458.183 490.387 455.212 487.16C453.79 485.516 452.893 483.484 452.637 481.326C452.381 479.167 452.777 476.982 453.775 475.051C456.781 469.362 460.818 464.281 465.68 460.067C471.67 454.866 478.765 451.094 486.427 449.037C494.089 446.98 502.119 446.692 509.909 448.195C517.699 449.698 525.045 452.952 531.393 457.711C537.74 462.47 542.923 468.61 546.549 475.666L690.225 721.968C691.535 724.194 692.229 726.728 692.238 729.31C692.246 731.892 691.569 734.43 690.274 736.665C688.98 738.899 687.114 740.749 684.87 742.026C682.625 743.302 680.082 743.96 677.5 743.93H15.5628C13.0694 744.1 10.5743 743.626 8.31704 742.553C6.05983 741.48 4.11645 739.845 2.67361 737.804C1.23076 735.764 0.336949 733.387 0.0780495 730.901C-0.18085 728.415 0.203829 725.905 1.1952 723.61Z" fill="#0F1623"/>
<path d="M840.467 744.135H777.045C769.521 743.947 762.172 741.828 755.702 737.982C749.233 734.136 743.86 728.693 740.099 722.174L583.287 451.857C574.876 437.187 562.741 424.997 548.109 416.52C533.476 408.043 516.865 403.578 499.955 403.578C483.044 403.578 466.434 408.043 451.801 416.52C437.169 424.997 425.034 437.187 416.623 451.857L413.749 457.809C411.743 461.714 410.028 465.762 408.618 469.919C408.006 472.018 406.741 473.866 405.006 475.195C403.271 476.524 401.156 477.264 398.971 477.308C392.558 477.446 386.17 476.474 380.088 474.435C372.605 471.832 365.808 467.57 360.205 461.969C354.602 456.368 350.338 449.572 347.733 442.09C345.127 434.609 344.247 426.635 345.158 418.765C346.069 410.895 348.748 403.333 352.995 396.644L496.671 150.342C497.95 148.126 499.789 146.285 502.005 145.005C504.221 143.725 506.735 143.052 509.294 143.052C511.853 143.052 514.367 143.725 516.582 145.005C518.798 146.285 520.638 148.126 521.917 150.342L852.988 722.174C854.288 724.384 854.982 726.899 855 729.464C855.017 732.028 854.357 734.552 853.087 736.78C851.817 739.008 849.981 740.862 847.765 742.153C845.549 743.445 843.032 744.128 840.467 744.135Z" fill="#0F1623"/>
</svg>
